<?xml version="1.0" standalone="no"?>
<!DOCTYPE svg PUBLIC "-//W3C//DTD SVG 20010904//EN"
 "http://www.w3.org/TR/2001/REC-SVG-20010904/DTD/svg10.dtd">
<svg version="1.0" xmlns="http://www.w3.org/2000/svg"
 width="300.000000pt" height="300.000000pt" viewBox="0 0 300.000000 300.000000"
 preserveAspectRatio="xMidYMid meet">
<metadata>
Created by potrace 1.14, written by Peter Selinger 2001-2017
</metadata>
<g transform="translate(0.000000,300.000000) scale(0.100000,-0.100000)"
fill="#000000" stroke="none">
<path d="M974 2990 c-6 -6 -27 -11 -47 -12 -20 -1 -37 -6 -37 -11 0 -6 -3 -8
-6 -4 -3 3 -27 -1 -52 -9 -26 -8 -56 -17 -67 -19 -10 -3 -42 -16 -71 -30 -28
-14 -56 -25 -62 -25 -7 0 -12 -5 -12 -11 0 -5 -4 -8 -9 -4 -6 3 -13 -1 -18 -9
-8 -15 -11 -16 -38 -16 -8 0 -14 -4 -13 -9 2 -5 -1 -10 -7 -11 -5 -1 -18 -9
-27 -17 -10 -9 -18 -12 -18 -8 0 4 -11 -3 -25 -16 -47 -46 -70 -64 -77 -61 -5
1 -8 -5 -8 -15 0 -9 -3 -14 -6 -11 -7 7 -54 -39 -54 -53 0 -6 -5 -7 -10 -4 -6
3 -10 -1 -10 -9 0 -9 -11 -23 -25 -32 -14 -9 -24 -19 -21 -21 2 -3 -3 -13 -12
-22 -35 -37 -50 -59 -45 -65 4 -3 2 -6 -4 -6 -5 0 -30 -39 -54 -87 -24 -49
-47 -90 -52 -91 -4 -2 -5 -8 -1 -13 3 -5 1 -9 -5 -9 -5 0 -8 -8 -7 -17 2 -9
-3 -28 -10 -42 -7 -13 -11 -28 -8 -33 3 -4 1 -8 -4 -8 -5 0 -9 -6 -10 -12 -2
-23 -7 -43 -16 -57 -7 -10 -5 -12 5 -7 8 4 6 1 -4 -7 -12 -10 -15 -17 -7 -22
7 -4 8 -11 2 -18 -5 -7 -8 -22 -7 -34 1 -13 -2 -23 -7 -23 -4 0 -8 -5 -8 -11
0 -5 6 -7 13 -3 9 6 9 4 1 -7 -16 -19 -16 -219 -1 -238 9 -12 9 -13 0 -7 -8 4
-13 1 -13 -8 0 -9 4 -16 8 -16 5 0 9 -7 9 -15 0 -8 -4 -15 -9 -15 -5 0 -2 -7
7 -16 10 -11 13 -20 7 -26 -6 -6 -3 -23 8 -45 9 -19 16 -44 15 -56 -1 -12 2
-24 6 -27 4 -3 10 -17 13 -32 2 -14 11 -39 20 -56 8 -16 12 -32 9 -36 -4 -3
-1 -6 5 -6 6 0 14 -16 18 -36 5 -25 9 -32 15 -22 7 10 9 8 9 -7 0 -11 9 -31
20 -45 11 -14 20 -31 20 -37 0 -7 5 -13 10 -13 6 0 10 -7 10 -15 0 -8 5 -15
10 -15 6 0 10 -6 10 -13 0 -7 13 -26 30 -42 16 -15 27 -32 24 -37 -3 -5 -2 -7
3 -6 4 2 41 -30 81 -69 39 -40 72 -70 72 -68 0 5 30 -18 55 -43 8 -6 18 -12
23 -12 5 0 17 -9 27 -20 10 -11 26 -20 35 -20 10 0 23 -7 30 -15 7 -8 19 -15
26 -15 8 0 14 -5 14 -11 0 -5 5 -7 11 -3 6 3 14 2 18 -4 3 -6 13 -12 21 -14 8
-2 21 -9 28 -16 8 -7 18 -10 23 -7 4 3 22 -1 38 -9 16 -9 43 -18 61 -21 19 -3
37 -8 41 -11 5 -3 25 -7 46 -9 54 -7 66 -10 81 -18 7 -5 12 -3 12 5 0 10 2 10
9 0 4 -8 12 -14 16 -14 4 0 12 6 16 14 6 8 9 9 9 1 0 -17 197 -9 313 13 17 4
25 10 21 17 -5 9 -4 9 5 1 9 -8 23 -7 54 3 23 8 50 15 59 16 10 1 18 4 18 7 0
3 20 12 45 19 25 7 45 17 45 22 0 5 6 9 13 9 19 0 67 24 67 33 0 5 5 5 10 2 6
-3 10 -2 10 3 0 5 14 15 30 22 17 7 30 16 30 20 0 4 14 13 30 20 30 12 31 11
106 -64 l75 -75 -34 -36 c-24 -25 -33 -42 -30 -56 3 -11 7 -18 10 -16 2 2 146
-138 321 -312 314 -313 385 -373 412 -347 10 8 11 8 6 -1 -9 -16 99 -18 109
-3 4 6 10 8 15 5 11 -7 91 36 97 53 3 6 12 12 20 12 8 0 12 4 9 8 -3 5 4 16
15 25 11 10 17 22 14 27 -3 6 -1 10 4 10 6 0 11 9 11 20 0 11 4 20 8 20 14 0
14 110 0 128 -9 11 -9 14 -1 9 17 -11 -21 73 -38 84 -8 5 -10 9 -5 9 5 0 -134
142 -308 316 -174 174 -316 320 -316 324 0 16 -41 2 -64 -22 -13 -15 -22 -28
-20 -30 1 -2 -6 -4 -16 -4 -10 0 -18 2 -16 4 2 1 -31 37 -73 78 -68 68 -74 77
-59 88 10 7 15 16 11 19 -3 4 -2 7 3 7 6 0 21 14 33 31 13 18 17 28 10 23 -8
-4 2 12 21 36 19 24 34 45 33 47 -9 10 -1 33 9 27 8 -5 9 -2 5 9 -3 9 1 23 9
31 8 9 14 17 14 18 -5 13 26 95 33 91 6 -3 7 -1 4 4 -4 6 1 42 11 80 10 38 17
84 16 101 -1 18 3 32 8 32 6 0 4 8 -3 17 -8 9 -9 14 -3 10 15 -8 14 185 -1
195 -6 5 -5 8 3 8 8 0 10 5 6 12 -5 7 -10 31 -12 53 -2 22 -9 46 -15 54 -9 12
-9 13 0 8 9 -6 8 2 -2 26 -8 19 -11 37 -8 40 3 4 0 13 -7 22 -7 8 -9 15 -5 15
4 0 2 6 -4 14 -6 7 -12 25 -13 40 -1 14 -6 26 -10 26 -4 0 -8 5 -8 11 0 16
-41 103 -53 110 -5 4 -6 12 -2 19 5 9 4 11 -3 6 -7 -4 -12 -1 -12 6 0 27 -103
161 -186 241 -99 96 -122 117 -131 117 -3 0 -15 7 -25 17 -20 18 -33 26 -107
66 -28 15 -51 24 -51 20 0 -5 -4 -3 -8 3 -9 13 -107 55 -133 57 -10 1 -19 4
-19 7 0 5 -18 9 -57 12 -7 1 -13 4 -13 8 0 3 -10 7 -22 8 -50 3 -74 8 -87 16
-9 6 -12 5 -8 -1 3 -5 0 -10 -8 -10 -8 0 -12 3 -10 7 8 13 -177 11 -193 -2
-13 -11 -14 -11 -8 0 5 9 -1 12 -24 10 -17 -1 -34 -6 -37 -11 -2 -4 -10 -3
-17 2 -8 7 -16 7 -22 1z m141 -80 c-3 -5 -14 -10 -23 -9 -14 0 -13 2 3 9 27
11 27 11 20 0z m65 -6 c0 -2 -11 -4 -25 -4 -14 0 -25 4 -25 9 0 4 11 6 25 3
14 -2 25 -6 25 -8z m30 6 c0 -5 -4 -10 -10 -10 -5 0 -10 5 -10 10 0 6 5 10 10
10 6 0 10 -4 10 -10z m-140 -10 c0 -5 -2 -10 -4 -10 -3 0 -8 5 -11 10 -3 6 -1
10 4 10 6 0 11 -4 11 -10z m177 4 c-3 -3 -12 -4 -19 -1 -8 3 -5 6 6 6 11 1 17
-2 13 -5z m116 -7 c6 3 7 1 3 -5 -8 -13 -84 -6 -99 8 -5 4 12 4 38 -1 26 -5
52 -6 58 -2z m-368 -7 c-16 -4 -39 -8 -50 -8 l-20 -1 20 9 c11 5 34 8 50 8
l30 0 -30 -8z m-86 -14 c-12 -12 -59 -17 -59 -6 0 6 4 8 10 5 5 -3 18 -2 27 4
16 9 32 7 22 -3z m521 -5 c24 -11 24 -11 -5 -6 -16 4 -34 10 -39 15 -11 11 11
7 44 -9z m-620 -21 c0 -5 -5 -10 -11 -10 -5 0 -7 5 -4 10 3 6 8 10 11 10 2 0
4 -4 4 -10z m852 -73 c43 -23 78 -45 78 -49 0 -3 -35 14 -77 38 -43 25 -99 52
-125 62 -27 9 -48 20 -48 24 0 10 78 -24 172 -75z m-882 68 c0 -2 -9 -9 -20
-15 -12 -6 -20 -7 -20 -1 0 5 8 12 18 14 9 3 18 5 20 6 1 0 2 -1 2 -4z m-70
-33 c0 -4 -20 -18 -45 -30 -25 -12 -45 -18 -45 -14 0 5 41 29 88 51 1 0 2 -3
2 -7z m581 -29 c7 -7 -3 -8 -33 -3 -23 5 -90 7 -148 6 -61 -2 -92 0 -75 5 42
10 244 4 256 -8z m-321 -12 c0 -6 -9 -9 -19 -8 -11 0 -17 5 -15 9 7 11 34 10
34 -1z m375 -1 c-3 -5 -12 -7 -20 -3 -21 7 -19 13 6 13 11 0 18 -4 14 -10z
m49 -9 c4 -5 -3 -7 -14 -4 -23 6 -26 13 -6 13 8 0 17 -4 20 -9z m-784 -5 c0
-3 -4 -8 -10 -11 -5 -3 -10 -1 -10 4 0 6 5 11 10 11 6 0 10 -2 10 -4z m260 -6
c0 -5 -8 -10 -18 -10 -10 0 -22 -3 -26 -7 -3 -4 -16 -8 -28 -10 -23 -4 -20 6
4 11 7 2 24 8 38 14 14 6 26 11 28 11 1 1 2 -3 2 -9z m593 -10 c5 -4 -3 -5
-17 -3 -15 3 -29 10 -32 15 -7 11 36 1 49 -12z m-919 -29 c-21 -16 -41 -27
-44 -24 -3 3 1 8 7 10 7 3 23 13 35 23 13 11 27 19 32 20 5 0 -8 -13 -30 -29z
m976 3 c0 -2 -9 0 -20 6 -11 6 -20 13 -20 16 0 2 9 0 20 -6 11 -6 20 -13 20
-16z m-750 -4 c0 -5 -8 -10 -17 -10 -15 0 -16 2 -3 10 19 12 20 12 20 0z m780
-5 c11 -13 10 -14 -4 -9 -9 3 -16 10 -16 15 0 13 6 11 20 -6z m255 -26 c16
-19 13 -18 -17 5 -21 16 -38 30 -38 33 0 8 36 -16 55 -38z m-1080 11 c-3 -5
-12 -10 -18 -10 -7 0 -6 4 3 10 19 12 23 12 15 0z m360 0 c-11 -5 -40 -8 -65
-8 -43 1 -44 1 -10 7 19 3 49 7 65 8 25 1 27 0 10 -7z m113 3 c-15 -2 -42 -2
-60 0 -18 2 -6 4 27 4 33 0 48 -2 33 -4z m140 -18 c4 -5 -1 -5 -11 -2 -10 4
-37 7 -58 7 -22 0 -38 4 -35 8 6 10 93 -1 104 -13z m288 -13 c-4 -3 -14 2 -24
12 -16 18 -16 18 6 6 13 -6 21 -14 18 -18z m-682 6 c-3 -4 -12 -8 -20 -8 -8 0
-13 4 -10 8 3 5 12 9 20 9 8 0 13 -4 10 -9z m436 6 c0 -8 -19 -13 -24 -6 -3 5
1 9 9 9 8 0 15 -2 15 -3z m-716 -19 c-4 -8 -10 -12 -15 -9 -5 3 -9 0 -9 -7 0
-7 -3 -9 -7 -5 -5 4 1 14 11 22 25 18 27 18 20 -1z m790 -10 c31 -14 56 -27
56 -29 0 -6 -82 26 -105 41 -29 20 -14 16 49 -12z m-1060 -67 c-44 -46 -95
-107 -114 -135 -34 -54 -50 -71 -29 -30 19 35 84 120 112 146 15 13 24 28 21
32 -3 5 0 9 6 9 6 0 25 14 42 30 16 17 32 30 36 30 3 0 -30 -37 -74 -82z m466
62 c-24 -15 -36 -11 -14 4 10 8 21 12 24 10 2 -3 -2 -9 -10 -14z m825 -10 c11
-17 -5 -11 -28 11 l-22 21 22 -11 c12 -6 25 -16 28 -21z m-1077 -9 c-7 -11
-15 -18 -18 -16 -4 2 -42 -31 -86 -73 -43 -42 -68 -63 -56 -47 20 26 160 155
169 155 2 0 -2 -9 -9 -19z m1364 -106 c6 -11 9 -18 6 -15 -2 3 -33 37 -68 75
l-64 70 58 -55 c31 -30 62 -64 68 -75z m-1172 100 c-30 -17 -40 -18 -40 -4 0
5 4 8 8 5 4 -2 14 -1 22 5 8 5 20 9 25 8 6 0 -1 -6 -15 -14z m966 -46 c13 -22
-3 -14 -36 19 l-35 34 32 -21 c18 -12 35 -27 39 -32z m-184 12 c25 -16 50 -26
54 -23 4 4 4 1 0 -6 -5 -9 -12 -10 -19 -3 -7 5 -32 21 -57 35 -25 14 -40 26
-34 26 5 0 31 -13 56 -29z m-832 14 c0 -2 -10 -9 -22 -15 -22 -11 -22 -10 -4
4 21 17 26 19 26 11z m-65 -35 c-10 -11 -21 -18 -23 -15 -3 3 3 12 14 20 27
20 30 18 9 -5z m-116 -104 c-46 -47 -85 -83 -87 -81 -2 2 26 33 62 69 37 36
63 66 59 66 -7 0 35 26 46 29 2 1 -33 -37 -80 -83z m1134 37 c19 -17 38 -30
41 -27 3 2 4 1 1 -3 -3 -3 1 -13 7 -22 10 -13 -18 11 -112 97 -3 3 2 1 12 -4
9 -5 32 -23 51 -41z m212 -88 c38 -53 115 -193 115 -209 0 -3 -4 -6 -8 -6 -5
0 -9 6 -9 13 0 30 -98 200 -142 247 -9 9 -29 32 -46 51 l-30 34 38 -35 c22
-19 58 -62 82 -95z m81 86 c-3 -5 1 -11 9 -15 8 -3 15 -10 15 -16 0 -5 -9 -2
-19 7 -17 14 -20 33 -5 33 3 0 3 -4 0 -9z m-1586 -63 c-12 -13 -29 -35 -38
-50 -9 -16 -20 -28 -24 -28 -4 0 8 23 28 50 20 28 40 50 45 50 6 0 0 -10 -11
-22z m1657 -45 c19 -40 8 -39 -15 1 -11 19 -15 33 -9 30 7 -2 18 -16 24 -31z
m-1844 -38 c-9 -19 -18 -33 -21 -31 -4 5 26 66 33 66 3 0 -3 -16 -12 -35z
m241 -10 c-9 -14 -18 -25 -20 -25 -2 0 2 11 8 25 6 14 15 25 20 25 5 0 1 -11
-8 -25z m1366 15 c0 -5 -2 -10 -4 -10 -3 0 -8 5 -11 10 -3 6 -1 10 4 10 6 0
11 -4 11 -10z m-1512 -68 c-13 -28 -26 -52 -30 -52 -4 0 4 25 19 55 34 68 41
66 11 -3z m1782 42 c0 -8 -5 -12 -10 -9 -6 4 -8 11 -5 16 9 14 15 11 15 -7z
m-210 -60 c10 -19 15 -34 10 -34 -5 0 -12 9 -15 20 -4 11 -18 35 -33 53 -20
25 -21 28 -4 13 12 -10 31 -34 42 -52z m-1696 21 c-4 -8 -8 -15 -10 -15 -2 0
-4 7 -4 15 0 8 4 15 10 15 5 0 7 -7 4 -15z m246 11 c0 -3 -4 -8 -10 -11 -5 -3
-10 -1 -10 4 0 6 5 11 10 11 6 0 10 -2 10 -4z m1678 -21 c-3 -3 -9 2 -12 12
-6 14 -5 15 5 6 7 -7 10 -15 7 -18z m-1698 -9 c0 -3 -4 -8 -10 -11 -5 -3 -10
-1 -10 4 0 6 5 11 10 11 6 0 10 -2 10 -4z m-245 -23 c-4 -10 -12 -31 -17 -46
-6 -15 -12 -26 -15 -24 -2 3 2 21 11 40 8 19 12 38 8 41 -3 3 0 6 7 6 9 0 11
-6 6 -17z m1969 -32 c-6 -6 -11 1 -18 29 l-7 25 15 -25 c8 -14 12 -27 10 -29z
m-1868 -15 c0 -14 -5 -21 -9 -17 -4 4 -5 15 -1 24 9 24 12 21 10 -7z m1658 -9
c7 -6 6 -7 -4 -4 -8 2 -16 12 -17 23 -2 13 -1 15 4 4 3 -8 11 -19 17 -23z
m-1561 -9 c-9 -18 -18 -37 -18 -43 -1 -5 -3 -16 -3 -22 -1 -7 -7 -13 -13 -13
-8 0 -8 4 0 14 6 8 11 18 10 22 -3 14 25 74 33 74 5 0 1 -15 -9 -32z m1787
-13 c0 -5 -5 -3 -10 5 -5 8 -10 20 -10 25 0 6 5 3 10 -5 5 -8 10 -19 10 -25z
m-1906 -29 c-3 -15 -8 -25 -11 -23 -2 3 -1 17 3 31 3 15 8 25 11 23 2 -3 1
-17 -3 -31z m1702 -23 c7 -18 11 -33 8 -33 -7 0 -34 67 -33 82 0 8 3 8 6 -2 3
-8 12 -30 19 -47z m99 8 c4 -15 3 -21 -3 -17 -5 3 -12 17 -15 32 -5 30 8 20
18 -15z m123 -31 c0 -9 -3 -7 -8 5 -5 11 -8 29 -8 40 0 16 2 15 8 -5 4 -14 8
-32 8 -40z m-2039 43 c0 -5 -4 -17 -9 -28 -8 -17 -8 -16 -7 8 1 15 5 27 9 27
4 0 8 -3 7 -7z m98 -63 c-4 -31 -17 -54 -17 -29 0 18 11 59 16 59 2 0 2 -14 1
-30z m103 4 c0 -8 -5 -12 -10 -9 -6 4 -8 11 -5 16 9 14 15 11 15 -7z m1735
-39 c9 -52 -1 -42 -14 14 -5 24 -6 39 -1 35 4 -5 11 -27 15 -49z m-1962 -2
c-5 -65 -8 -81 -15 -89 -4 -3 -4 8 -2 25 3 17 7 47 9 68 3 42 4 43 9 43 2 0 1
-21 -1 -47z m1864 4 c1 -29 1 -30 -8 -9 -5 13 -7 28 -3 33 8 14 9 12 11 -24z
m221 -52 l0 -30 -8 30 c-4 17 -8 44 -8 60 l0 30 8 -30 c4 -16 8 -43 8 -60z
m-1877 42 c-10 -9 -11 -8 -5 6 3 10 9 15 12 12 3 -3 0 -11 -7 -18z m-100 -50
c-5 -18 -7 -40 -5 -50 1 -9 -3 -20 -8 -24 -8 -4 -9 6 -5 33 4 21 7 47 7 57 0
9 4 17 9 17 5 0 6 -15 2 -33z m1767 -2 c-3 -3 -9 2 -12 12 -6 14 -5 15 5 6 7
-7 10 -15 7 -18z m102 -6 c0 -5 -4 -9 -8 -9 -5 0 -9 7 -9 15 0 8 4 12 9 9 4
-3 8 -9 8 -15z m-1774 -11 c-3 -13 -6 -63 -6 -112 0 -49 -2 -87 -5 -84 -4 3
-5 44 -5 92 2 118 3 126 13 126 5 0 7 -10 3 -22z m1679 -35 c3 -18 1 -34 -3
-37 -5 -3 -9 14 -11 37 -2 47 5 47 14 0z m212 -15 c-3 -8 -6 -5 -6 6 -1 11 2
17 5 13 3 -3 4 -12 1 -19z m-2109 -65 c0 -38 -1 -63 -3 -58 -7 19 -11 125 -5
125 4 0 7 -30 8 -67z m1997 20 c3 -18 2 -34 -2 -36 -5 -3 -9 13 -10 35 -2 46
3 47 12 1z m-1875 17 c0 -5 -4 -10 -10 -10 -5 0 -10 5 -10 10 0 6 5 10 10 10
6 0 10 -4 10 -10z m1167 -42 c-3 -8 -6 -5 -6 6 -1 11 2 17 5 13 3 -3 4 -12 1
-19z m-1171 -70 c2 -29 6 -64 9 -78 4 -18 3 -21 -4 -10 -11 18 -26 158 -16
148 4 -4 9 -31 11 -60z m1784 32 c0 -5 -4 -10 -10 -10 -5 0 -10 5 -10 10 0 6
5 10 10 10 6 0 10 -4 10 -10z m82 -77 c-8 -13 -9 -9 -7 18 5 52 8 57 12 27 2
-15 0 -35 -5 -45z m-91 26 c-9 -22 -10 -22 -10 -3 -1 11 2 24 6 27 12 12 14 0
4 -24z m214 -1 c-3 -13 -7 -38 -8 -56 -2 -17 -7 -35 -11 -40 -7 -6 0 77 9 106
7 21 16 13 10 -10z m-1887 -38 c-1 -37 -8 -33 -13 9 -2 18 0 29 5 26 5 -3 8
-19 8 -35z m-208 10 c0 -11 -2 -20 -4 -20 -2 0 -6 9 -9 20 -3 11 -1 20 4 20 5
0 9 -9 9 -20z m1867 -42 c-3 -8 -6 -5 -6 6 -1 11 2 17 5 13 3 -3 4 -12 1 -19z
m99 -4 c-4 -9 -9 -15 -11 -12 -3 3 -3 13 1 22 4 9 9 15 11 12 3 -3 3 -13 -1
-22z m-1956 -16 c0 -19 -16 -5 -17 14 -2 18 0 20 7 8 5 -8 10 -18 10 -22z
m210 -3 c0 -8 -2 -15 -4 -15 -2 0 -6 7 -10 15 -3 8 -1 15 4 15 6 0 10 -7 10
-15z m1644 -10 c-4 -8 -8 -15 -10 -15 -2 0 -4 7 -4 15 0 8 4 15 10 15 5 0 7
-7 4 -15z m93 -17 c-3 -8 -6 -5 -6 6 -1 11 2 17 5 13 3 -3 4 -12 1 -19z
m-1827 -3 c7 -9 8 -15 2 -15 -5 0 -12 7 -16 15 -3 8 -4 15 -2 15 2 0 9 -7 16
-15z m1945 3 c-2 -7 -6 -25 -9 -40 -2 -15 -10 -35 -16 -45 -11 -17 -11 -16 -5
2 4 11 9 31 11 45 6 33 12 50 18 50 3 0 3 -6 1 -12z m-2055 -26 c0 -15 -2 -15
-10 -2 -13 20 -13 33 0 25 6 -3 10 -14 10 -23z m1828 -9 c-16 -39 -32 -54 -18
-19 12 33 19 46 25 46 3 0 -1 -12 -7 -27z m91 -29 c-7 -16 -13 -34 -15 -41
-10 -50 -115 -233 -133 -233 -6 0 1 12 14 26 22 24 103 177 109 206 2 7 6 21
10 30 4 9 9 25 11 35 5 27 6 29 11 17 3 -6 -1 -24 -7 -40z m-1689 -6 c0 -19
-16 -5 -17 14 -2 18 0 20 7 8 5 -8 10 -18 10 -22z m-223 16 c-3 -4 0 -19 8
-35 8 -15 11 -30 6 -33 -5 -3 -11 4 -14 17 -2 12 -8 30 -12 40 -5 11 -3 17 6
17 7 0 10 -3 6 -6z m123 -22 c0 -10 3 -22 7 -26 4 -3 8 -16 10 -28 2 -12 1
-19 -3 -16 -3 3 -6 12 -8 20 -1 7 -4 18 -7 23 -14 24 -18 45 -9 45 6 0 10 -8
10 -18z m114 -27 c3 -8 1 -15 -4 -15 -6 0 -10 7 -10 15 0 8 2 15 4 15 2 0 6
-7 10 -15z m1553 -12 c-22 -49 -57 -113 -62 -113 -3 0 11 32 30 70 34 68 56
98 32 43z m217 -25 c-4 -13 -9 -25 -10 -28 -1 -3 -5 -15 -9 -27 -4 -13 -11
-23 -17 -23 -5 0 -3 10 4 23 7 12 13 24 13 27 9 35 18 60 22 56 3 -2 1 -15 -3
-28z m-1940 -93 c24 -49 43 -91 42 -93 -4 -3 -71 124 -86 163 -18 48 -4 26 44
-70z m208 45 c15 -27 23 -50 18 -50 -5 0 -12 10 -16 23 -3 12 -15 34 -26 50
-11 15 -16 27 -11 27 5 0 20 -22 35 -50z m-104 -2 c16 -44 9 -45 -11 -3 -9 19
-13 35 -9 35 4 0 13 -14 20 -32z m1784 -73 c-9 -19 -21 -35 -26 -35 -4 0 -2
10 6 23 8 12 18 28 22 35 16 27 15 10 -2 -23z m-1720 -40 c9 -17 9 -18 -3 -8
-8 6 -22 26 -32 45 l-19 33 21 -25 c12 -14 27 -34 33 -45z m1474 40 c-9 -9
-16 -20 -16 -25 0 -4 -7 -11 -15 -14 -10 -3 -6 8 11 29 15 20 29 33 32 31 2
-3 -3 -12 -12 -21z m-1340 -63 c-5 -4 -46 35 -46 45 0 3 11 -4 25 -17 14 -13
23 -25 21 -28z m1244 -48 c-30 -30 -63 -60 -74 -66 -10 -5 13 20 50 56 84 80
98 86 24 10z m-1310 -19 c14 -19 14 -19 -3 -6 -10 8 -27 28 -39 45 l-21 31 24
-25 c13 -14 31 -34 39 -45z m1600 43 c-11 -12 -20 -26 -20 -32 0 -5 -3 -7 -6
-4 -7 8 25 58 38 58 5 0 0 -10 -12 -22z m-1740 -44 c63 -100 242 -255 353
-307 20 -10 37 -20 37 -23 0 -3 -3 -4 -7 -2 -5 2 -21 10 -38 18 -16 8 -38 21
-48 29 -9 8 -17 10 -17 5 0 -5 -4 -4 -8 1 -4 6 -36 33 -71 60 -64 48 -159 142
-189 187 -9 13 -18 25 -22 28 -13 11 -40 60 -33 60 5 -1 24 -26 43 -56z m1564
1 c-20 -25 -38 -45 -41 -45 -6 0 41 64 57 77 26 21 23 14 -16 -32z m127 -27
c-11 -13 -30 -34 -41 -48 -12 -14 -7 -4 10 23 17 26 36 47 42 47 5 0 1 -10
-11 -22z m-1501 -33 c19 -19 32 -35 29 -35 -3 0 -20 16 -39 35 -19 19 -32 35
-29 35 3 0 20 -16 39 -35z m199 -27 c33 -23 59 -43 57 -45 -2 -2 -25 11 -51
29 -26 18 -56 39 -68 45 -12 7 -17 13 -10 13 6 0 39 -19 72 -42z m1121 32 c0
-5 -5 -10 -11 -10 -5 0 -7 5 -4 10 3 6 8 10 11 10 2 0 4 -4 4 -10z m-168 -24
c-132 -76 -169 -96 -182 -96 -8 0 21 18 65 40 44 22 88 49 99 59 11 11 24 17
29 14 5 -3 0 -10 -11 -17z m123 -26 c-16 -16 -31 -28 -33 -25 -4 4 48 54 57
55 3 0 -8 -13 -24 -30z m-1124 -70 c5 0 9 -5 9 -11 0 -12 -81 44 -107 74 -10
11 6 2 35 -21 30 -23 58 -42 63 -42z m1272 52 c-10 -10 -20 -17 -22 -16 -6 5
20 34 30 34 5 0 1 -8 -8 -18z m-1100 -32 c20 -8 37 -18 37 -22 0 -5 -19 1 -42
13 -40 20 -66 37 -43 28 6 -2 27 -11 48 -19z m907 16 c0 -3 -4 -8 -10 -11 -5
-3 -10 -1 -10 4 0 6 5 11 10 11 6 0 10 -2 10 -4z m160 -10 c0 -2 -8 -10 -17
-17 -16 -13 -17 -12 -4 4 13 16 21 21 21 13z m-195 -16 c-9 -14 -45 -32 -45
-23 0 7 24 22 48 32 2 0 0 -3 -3 -9z m286 -37 c-25 -27 -47 -45 -49 -42 -3 8
78 89 88 89 4 0 -13 -21 -39 -47z m-541 15 c0 -6 -3 -8 -6 -5 -4 3 -16 2 -28
-4 -20 -10 -20 -10 -2 5 24 19 36 20 36 4z m-724 -29 c4 -8 1 -8 -14 0 -12 6
-24 16 -28 22 -4 8 -1 8 14 0 12 -6 24 -16 28 -22z m209 21 c3 -6 -1 -7 -9 -4
-18 7 -21 14 -7 14 6 0 13 -4 16 -10z m925 3 c-8 -3 -17 -9 -20 -12 -3 -3 -21
-16 -40 -29 -34 -23 -34 -22 5 12 22 20 47 35 55 35 13 -1 13 -1 0 -6z m-874
-19 c18 -15 18 -15 -2 -5 -12 6 -24 7 -28 4 -3 -3 -6 -1 -6 5 0 16 12 15 36
-4z m394 6 c-8 -5 -22 -9 -30 -9 -10 0 -8 3 5 9 27 12 43 12 25 0z m270 5 c0
-2 -13 -11 -30 -20 -16 -9 -30 -12 -30 -7 0 4 12 13 28 19 15 6 28 11 30 12 1
1 2 -1 2 -4z m450 -20 c13 -14 21 -25 18 -25 -2 0 -15 11 -28 25 -13 14 -21
25 -18 25 2 0 15 -11 28 -25z m-1015 -5 c5 -8 -64 -5 -72 4 -2 2 12 4 31 4 20
0 38 -4 41 -8z m195 2 c0 -4 -9 -8 -19 -8 -11 0 -17 4 -15 8 7 10 34 10 34 0z
m50 4 c0 -2 -9 -6 -20 -9 -11 -3 -20 -1 -20 4 0 5 9 9 20 9 11 0 20 -2 20 -4z
m-493 -53 c-6 -5 -77 29 -77 38 0 3 18 -3 40 -14 23 -11 39 -21 37 -24z m393
43 c0 -8 -60 -12 -72 -4 -8 4 4 8 30 8 23 0 42 -2 42 -4z m340 -10 c0 -3 -4
-8 -10 -11 -5 -3 -10 -1 -10 4 0 6 5 11 10 11 6 0 10 -2 10 -4z m-34 -15 c-6
-10 -92 -41 -110 -40 -9 0 39 20 112 48 2 0 1 -3 -2 -8z m204 -21 c-14 -11
-29 -20 -35 -20 -5 0 4 9 20 20 38 25 48 25 15 0z m430 -25 c0 -6 -17 -27 -37
-46 l-38 -34 33 35 c37 42 38 46 15 74 -18 21 -18 21 5 2 12 -11 22 -24 22
-31z m-1271 9 c14 -12 -19 -1 -35 12 -18 14 -18 14 6 3 14 -6 27 -13 29 -15z
m1151 -61 c0 -8 -9 0 -50 45 l-45 47 48 -45 c26 -24 47 -45 47 -47z m-1055 41
c6 -2 -8 -1 -30 2 -22 3 -44 10 -49 14 -8 8 53 -4 79 -16z m375 6 c0 -5 -10
-10 -22 -9 -22 0 -22 1 -3 9 11 5 21 9 23 9 1 1 2 -3 2 -9z m37 4 c-3 -3 -12
-4 -19 -1 -8 3 -5 6 6 6 11 1 17 -2 13 -5z m283 -4 c0 -5 -5 -10 -11 -10 -5 0
-7 5 -4 10 3 6 8 10 11 10 2 0 4 -4 4 -10z m665 -18 c73 -69 74 -60 -10 -146
-41 -42 -75 -73 -75 -69 0 4 32 39 70 78 l71 69 -46 45 c-42 43 -47 45 -68 32
-20 -13 -21 -13 -8 2 19 24 32 21 66 -11z m-1290 7 c2 -3 -7 -6 -20 -7 -13 -1
-27 2 -30 7 -5 9 41 9 50 0z m250 1 c-3 -5 -14 -10 -23 -9 -14 0 -13 2 3 9 27
11 27 11 20 0z m-158 -13 c3 -4 -10 -7 -30 -7 -20 0 -38 4 -41 9 -7 10 60 8
71 -2z m101 1 c-16 -10 -88 -11 -88 0 0 4 23 7 50 8 30 0 45 -3 38 -8z m398 3
c-3 -4 -27 -16 -53 -26 -26 -10 -54 -22 -60 -28 -8 -6 -13 -6 -13 0 0 7 86 49
128 62 2 1 1 -3 -2 -8z m-911 -29 c-3 -3 -11 0 -18 7 -9 10 -8 11 6 5 10 -3
15 -9 12 -12z m1525 14 c0 -2 -8 -10 -17 -17 -16 -13 -17 -12 -4 4 13 16 21
21 21 13z m-1490 -26 c0 -5 -2 -10 -4 -10 -3 0 -8 5 -11 10 -3 6 -1 10 4 10 6
0 11 -4 11 -10z m30 -10 c0 -5 -2 -10 -4 -10 -3 0 -8 5 -11 10 -3 6 -1 10 4
10 6 0 11 -4 11 -10z m60 -26 c0 -2 -8 0 -19 5 -10 6 -22 7 -26 3 -5 -4 -5 -1
-1 6 5 9 12 9 27 2 10 -6 19 -13 19 -16z m646 14 c4 -7 4 -10 -1 -6 -4 4 -16
3 -26 -3 -12 -6 -19 -6 -19 0 0 5 8 12 18 14 9 3 18 5 19 6 1 0 5 -5 9 -11z
m714 8 c0 -2 -8 -10 -17 -17 -16 -13 -17 -12 -4 4 13 16 21 21 21 13z m-1310
-26 c13 -9 13 -10 0 -10 -8 0 -22 5 -30 10 -13 9 -13 10 0 10 8 0 22 -5 30
-10z m530 -2 c0 -6 -3 -8 -6 -5 -4 3 -15 2 -25 -3 -11 -6 -20 -6 -24 -1 -4 8
4 12 48 20 4 0 7 -4 7 -11z m-437 -15 c3 -5 -6 -8 -19 -8 -13 0 -24 3 -24 8 0
4 9 7 19 7 11 0 22 -3 24 -7z m357 -4 c0 -5 -3 -8 -8 -5 -4 2 -26 1 -50 -4
-23 -4 -42 -4 -42 1 0 4 17 10 38 12 20 2 43 4 50 5 6 1 12 -3 12 -9z m-305
-9 c8 -13 -5 -13 -25 0 -13 8 -13 10 2 10 9 0 20 -4 23 -10z m79 2 c3 -5 -1
-9 -9 -9 -8 0 -12 4 -9 9 3 4 7 8 9 8 2 0 6 -4 9 -8z m46 -8 c0 -8 -19 -13
-24 -6 -3 5 1 9 9 9 8 0 15 -2 15 -3z m980 3 c0 -2 -12 -14 -27 -28 l-28 -24
24 28 c23 25 31 32 31 24z m509 -208 c207 -207 257 -264 241 -274 -5 -3 -10 2
-10 11 0 9 -98 115 -217 236 -119 120 -214 218 -211 218 3 0 92 -86 197 -191z
m-272 105 c-37 -35 -66 -62 -64 -59 6 13 123 131 127 128 2 -2 -26 -33 -63
-69z m-20 -295 c196 -195 297 -288 317 -293 15 -4 26 -9 23 -12 -3 -3 -20 1
-38 9 -43 18 -617 589 -610 608 3 9 6 7 12 -6 4 -11 137 -149 296 -306z m-77
256 c13 -14 21 -25 18 -25 -2 0 -15 11 -28 25 -13 14 -21 25 -18 25 2 0 15
-11 28 -25z m630 -376 c0 -5 -4 -9 -8 -9 -5 0 -9 7 -9 15 0 8 4 12 9 9 4 -3 8
-9 8 -15z m-5 -28 c3 -5 1 -12 -5 -16 -5 -3 -10 1 -10 9 0 18 6 21 15 7z m-15
-56 c0 -8 -4 -15 -10 -15 -5 0 -7 7 -4 15 4 8 8 15 10 15 2 0 4 -7 4 -15z
m-32 -45 c-7 -11 -19 -22 -28 -25 -8 -4 -4 5 9 19 29 31 36 33 19 6z m-53 -40
c-3 -5 -14 -10 -23 -9 -14 0 -13 2 3 9 27 11 27 11 20 0z m-48 -16 c-3 -3 -12
-4 -19 -1 -8 3 -5 6 6 6 11 1 17 -2 13 -5z"/>
</g>
</svg>
